<mxfile host="app.diagrams.net" modified="2021-10-14T10:05:01.941Z" agent="5.0 (Macintosh; Intel Mac OS X 10_15_7) AppleWebKit/537.36 (KHTML, like Gecko) Chrome/94.0.4606.61 Safari/537.36" etag="gkfrxB7C3xofrDW9XG_m" version="15.5.2" type="github">
  <diagram id="qzzveHbFKzM360SlWyRH" name="Page-1">
    <mxGraphModel dx="1074" dy="590" grid="1" gridSize="10" guides="1" tooltips="1" connect="1" arrows="1" fold="1" page="1" pageScale="1" pageWidth="827" pageHeight="1169" background="#F1FAEE" math="0" shadow="0">
      <root>
        <mxCell id="0" />
        <mxCell id="1" parent="0" />
        <mxCell id="kwKOkOC7tSV6xay0HEzO-1" value="" style="shape=table;startSize=0;container=1;collapsible=0;childLayout=tableLayout;rounded=0;sketch=0;fontColor=#1D3557;strokeColor=#457B9D;fillColor=#A8DADC;comic=1;fontFamily=Comic Sans MS;" vertex="1" parent="1">
          <mxGeometry x="380" y="80" width="70" height="440" as="geometry" />
        </mxCell>
        <mxCell id="kwKOkOC7tSV6xay0HEzO-2" value="" style="shape=partialRectangle;collapsible=0;dropTarget=0;pointerEvents=0;fillColor=none;top=0;left=0;bottom=0;right=0;points=[[0,0.5],[1,0.5]];portConstraint=eastwest;rounded=0;sketch=0;fontColor=#1D3557;strokeColor=#457B9D;fontFamily=Comic Sans MS;" vertex="1" parent="kwKOkOC7tSV6xay0HEzO-1">
          <mxGeometry width="70" height="40" as="geometry" />
        </mxCell>
        <mxCell id="kwKOkOC7tSV6xay0HEzO-3" value="" style="shape=partialRectangle;html=1;whiteSpace=wrap;connectable=0;overflow=hidden;fillColor=none;top=0;left=0;bottom=0;right=0;pointerEvents=1;rounded=0;sketch=0;fontColor=#1D3557;strokeColor=#457B9D;fontFamily=Comic Sans MS;" vertex="1" parent="kwKOkOC7tSV6xay0HEzO-2">
          <mxGeometry width="70" height="40" as="geometry">
            <mxRectangle width="70" height="40" as="alternateBounds" />
          </mxGeometry>
        </mxCell>
        <mxCell id="kwKOkOC7tSV6xay0HEzO-4" value="" style="shape=partialRectangle;collapsible=0;dropTarget=0;pointerEvents=0;fillColor=none;top=0;left=0;bottom=0;right=0;points=[[0,0.5],[1,0.5]];portConstraint=eastwest;rounded=0;sketch=0;fontColor=#1D3557;strokeColor=#457B9D;fontFamily=Comic Sans MS;" vertex="1" parent="kwKOkOC7tSV6xay0HEzO-1">
          <mxGeometry y="40" width="70" height="40" as="geometry" />
        </mxCell>
        <mxCell id="kwKOkOC7tSV6xay0HEzO-5" value="" style="shape=partialRectangle;html=1;whiteSpace=wrap;connectable=0;overflow=hidden;fillColor=none;top=0;left=0;bottom=0;right=0;pointerEvents=1;rounded=0;sketch=0;fontColor=#1D3557;strokeColor=#457B9D;fontFamily=Comic Sans MS;" vertex="1" parent="kwKOkOC7tSV6xay0HEzO-4">
          <mxGeometry width="70" height="40" as="geometry">
            <mxRectangle width="70" height="40" as="alternateBounds" />
          </mxGeometry>
        </mxCell>
        <mxCell id="kwKOkOC7tSV6xay0HEzO-6" value="" style="shape=partialRectangle;collapsible=0;dropTarget=0;pointerEvents=0;fillColor=none;top=0;left=0;bottom=0;right=0;points=[[0,0.5],[1,0.5]];portConstraint=eastwest;rounded=0;sketch=0;fontColor=#1D3557;strokeColor=#457B9D;fontFamily=Comic Sans MS;" vertex="1" parent="kwKOkOC7tSV6xay0HEzO-1">
          <mxGeometry y="80" width="70" height="40" as="geometry" />
        </mxCell>
        <mxCell id="kwKOkOC7tSV6xay0HEzO-7" value="lp" style="shape=partialRectangle;html=1;whiteSpace=wrap;connectable=0;overflow=hidden;fillColor=none;top=0;left=0;bottom=0;right=0;pointerEvents=1;rounded=0;sketch=0;fontColor=#1D3557;strokeColor=#457B9D;fontFamily=Comic Sans MS;" vertex="1" parent="kwKOkOC7tSV6xay0HEzO-6">
          <mxGeometry width="70" height="40" as="geometry">
            <mxRectangle width="70" height="40" as="alternateBounds" />
          </mxGeometry>
        </mxCell>
        <mxCell id="kwKOkOC7tSV6xay0HEzO-8" value="" style="shape=partialRectangle;collapsible=0;dropTarget=0;pointerEvents=0;fillColor=none;top=0;left=0;bottom=0;right=0;points=[[0,0.5],[1,0.5]];portConstraint=eastwest;rounded=0;sketch=0;fontColor=#1D3557;strokeColor=#457B9D;fontFamily=Comic Sans MS;" vertex="1" parent="kwKOkOC7tSV6xay0HEzO-1">
          <mxGeometry y="120" width="70" height="40" as="geometry" />
        </mxCell>
        <mxCell id="kwKOkOC7tSV6xay0HEzO-9" value="fp&#39;&#39;&#39;" style="shape=partialRectangle;html=1;whiteSpace=wrap;connectable=0;overflow=hidden;fillColor=none;top=0;left=0;bottom=0;right=0;pointerEvents=1;rounded=0;sketch=0;fontColor=#1D3557;strokeColor=#457B9D;fontFamily=Comic Sans MS;" vertex="1" parent="kwKOkOC7tSV6xay0HEzO-8">
          <mxGeometry width="70" height="40" as="geometry">
            <mxRectangle width="70" height="40" as="alternateBounds" />
          </mxGeometry>
        </mxCell>
        <mxCell id="kwKOkOC7tSV6xay0HEzO-10" value="" style="shape=partialRectangle;collapsible=0;dropTarget=0;pointerEvents=0;fillColor=none;top=0;left=0;bottom=0;right=0;points=[[0,0.5],[1,0.5]];portConstraint=eastwest;rounded=0;sketch=0;fontColor=#1D3557;strokeColor=#457B9D;fontFamily=Comic Sans MS;" vertex="1" parent="kwKOkOC7tSV6xay0HEzO-1">
          <mxGeometry y="160" width="70" height="40" as="geometry" />
        </mxCell>
        <mxCell id="kwKOkOC7tSV6xay0HEzO-11" value="" style="shape=partialRectangle;html=1;whiteSpace=wrap;connectable=0;overflow=hidden;fillColor=none;top=0;left=0;bottom=0;right=0;pointerEvents=1;rounded=0;sketch=0;fontColor=#1D3557;strokeColor=#457B9D;fontFamily=Comic Sans MS;" vertex="1" parent="kwKOkOC7tSV6xay0HEzO-10">
          <mxGeometry width="70" height="40" as="geometry">
            <mxRectangle width="70" height="40" as="alternateBounds" />
          </mxGeometry>
        </mxCell>
        <mxCell id="kwKOkOC7tSV6xay0HEzO-12" value="" style="shape=partialRectangle;collapsible=0;dropTarget=0;pointerEvents=0;fillColor=none;top=0;left=0;bottom=0;right=0;points=[[0,0.5],[1,0.5]];portConstraint=eastwest;rounded=0;sketch=0;fontColor=#1D3557;strokeColor=#457B9D;fontFamily=Comic Sans MS;" vertex="1" parent="kwKOkOC7tSV6xay0HEzO-1">
          <mxGeometry y="200" width="70" height="40" as="geometry" />
        </mxCell>
        <mxCell id="kwKOkOC7tSV6xay0HEzO-13" value="lp" style="shape=partialRectangle;html=1;whiteSpace=wrap;connectable=0;overflow=hidden;fillColor=none;top=0;left=0;bottom=0;right=0;pointerEvents=1;rounded=0;sketch=0;fontColor=#1D3557;strokeColor=#457B9D;fontFamily=Comic Sans MS;" vertex="1" parent="kwKOkOC7tSV6xay0HEzO-12">
          <mxGeometry width="70" height="40" as="geometry">
            <mxRectangle width="70" height="40" as="alternateBounds" />
          </mxGeometry>
        </mxCell>
        <mxCell id="kwKOkOC7tSV6xay0HEzO-31" style="edgeStyle=orthogonalEdgeStyle;curved=0;rounded=1;sketch=0;orthogonalLoop=1;jettySize=auto;html=1;entryX=0;entryY=0.5;entryDx=0;entryDy=0;fontFamily=Comic Sans MS;fontColor=#1D3557;strokeColor=#457B9D;fillColor=#A8DADC;" edge="1" parent="kwKOkOC7tSV6xay0HEzO-1" source="kwKOkOC7tSV6xay0HEzO-14" target="kwKOkOC7tSV6xay0HEzO-8">
          <mxGeometry relative="1" as="geometry">
            <Array as="points">
              <mxPoint x="-20" y="250" />
              <mxPoint x="-20" y="140" />
            </Array>
          </mxGeometry>
        </mxCell>
        <mxCell id="kwKOkOC7tSV6xay0HEzO-14" value="" style="shape=partialRectangle;collapsible=0;dropTarget=0;pointerEvents=0;fillColor=none;top=0;left=0;bottom=0;right=0;points=[[0,0.5],[1,0.5]];portConstraint=eastwest;rounded=0;sketch=0;fontColor=#1D3557;strokeColor=#457B9D;fontFamily=Comic Sans MS;" vertex="1" parent="kwKOkOC7tSV6xay0HEzO-1">
          <mxGeometry y="240" width="70" height="40" as="geometry" />
        </mxCell>
        <mxCell id="kwKOkOC7tSV6xay0HEzO-15" value="fp&#39;&#39; = 300" style="shape=partialRectangle;html=1;whiteSpace=wrap;connectable=0;overflow=hidden;fillColor=none;top=0;left=0;bottom=0;right=0;pointerEvents=1;rounded=0;sketch=0;fontColor=#1D3557;strokeColor=#457B9D;fontFamily=Comic Sans MS;" vertex="1" parent="kwKOkOC7tSV6xay0HEzO-14">
          <mxGeometry width="70" height="40" as="geometry">
            <mxRectangle width="70" height="40" as="alternateBounds" />
          </mxGeometry>
        </mxCell>
        <mxCell id="kwKOkOC7tSV6xay0HEzO-16" value="" style="shape=partialRectangle;collapsible=0;dropTarget=0;pointerEvents=0;fillColor=none;top=0;left=0;bottom=0;right=0;points=[[0,0.5],[1,0.5]];portConstraint=eastwest;rounded=0;sketch=0;fontColor=#1D3557;strokeColor=#457B9D;fontFamily=Comic Sans MS;" vertex="1" parent="kwKOkOC7tSV6xay0HEzO-1">
          <mxGeometry y="280" width="70" height="40" as="geometry" />
        </mxCell>
        <mxCell id="kwKOkOC7tSV6xay0HEzO-17" value="" style="shape=partialRectangle;html=1;whiteSpace=wrap;connectable=0;overflow=hidden;fillColor=none;top=0;left=0;bottom=0;right=0;pointerEvents=1;rounded=0;sketch=0;fontColor=#1D3557;strokeColor=#457B9D;fontFamily=Comic Sans MS;" vertex="1" parent="kwKOkOC7tSV6xay0HEzO-16">
          <mxGeometry width="70" height="40" as="geometry">
            <mxRectangle width="70" height="40" as="alternateBounds" />
          </mxGeometry>
        </mxCell>
        <mxCell id="kwKOkOC7tSV6xay0HEzO-18" value="" style="shape=partialRectangle;collapsible=0;dropTarget=0;pointerEvents=0;fillColor=none;top=0;left=0;bottom=0;right=0;points=[[0,0.5],[1,0.5]];portConstraint=eastwest;rounded=0;sketch=0;fontColor=#1D3557;strokeColor=#457B9D;fontFamily=Comic Sans MS;" vertex="1" parent="kwKOkOC7tSV6xay0HEzO-1">
          <mxGeometry y="320" width="70" height="40" as="geometry" />
        </mxCell>
        <mxCell id="kwKOkOC7tSV6xay0HEzO-19" value="lp" style="shape=partialRectangle;html=1;whiteSpace=wrap;connectable=0;overflow=hidden;fillColor=none;top=0;left=0;bottom=0;right=0;pointerEvents=1;rounded=0;sketch=0;fontColor=#1D3557;strokeColor=#457B9D;fontFamily=Comic Sans MS;" vertex="1" parent="kwKOkOC7tSV6xay0HEzO-18">
          <mxGeometry width="70" height="40" as="geometry">
            <mxRectangle width="70" height="40" as="alternateBounds" />
          </mxGeometry>
        </mxCell>
        <mxCell id="kwKOkOC7tSV6xay0HEzO-30" style="edgeStyle=orthogonalEdgeStyle;curved=0;rounded=1;sketch=0;orthogonalLoop=1;jettySize=auto;html=1;entryX=0;entryY=0.5;entryDx=0;entryDy=0;fontFamily=Comic Sans MS;fontColor=#1D3557;strokeColor=#457B9D;fillColor=#A8DADC;" edge="1" parent="kwKOkOC7tSV6xay0HEzO-1" source="kwKOkOC7tSV6xay0HEzO-20" target="kwKOkOC7tSV6xay0HEzO-14">
          <mxGeometry relative="1" as="geometry" />
        </mxCell>
        <mxCell id="kwKOkOC7tSV6xay0HEzO-20" value="" style="shape=partialRectangle;collapsible=0;dropTarget=0;pointerEvents=0;fillColor=none;top=0;left=0;bottom=0;right=0;points=[[0,0.5],[1,0.5]];portConstraint=eastwest;rounded=0;sketch=0;fontColor=#1D3557;strokeColor=#457B9D;fontFamily=Comic Sans MS;" vertex="1" parent="kwKOkOC7tSV6xay0HEzO-1">
          <mxGeometry y="360" width="70" height="40" as="geometry" />
        </mxCell>
        <mxCell id="kwKOkOC7tSV6xay0HEzO-21" value="fp&#39; = 200" style="shape=partialRectangle;html=1;whiteSpace=wrap;connectable=0;overflow=hidden;fillColor=none;top=0;left=0;bottom=0;right=0;pointerEvents=1;rounded=0;sketch=0;fontColor=#1D3557;strokeColor=#457B9D;fontFamily=Comic Sans MS;" vertex="1" parent="kwKOkOC7tSV6xay0HEzO-20">
          <mxGeometry width="70" height="40" as="geometry">
            <mxRectangle width="70" height="40" as="alternateBounds" />
          </mxGeometry>
        </mxCell>
        <mxCell id="kwKOkOC7tSV6xay0HEzO-22" value="" style="shape=partialRectangle;collapsible=0;dropTarget=0;pointerEvents=0;fillColor=none;top=0;left=0;bottom=0;right=0;points=[[0,0.5],[1,0.5]];portConstraint=eastwest;rounded=0;sketch=0;fontColor=#1D3557;strokeColor=#457B9D;fontFamily=Comic Sans MS;" vertex="1" parent="kwKOkOC7tSV6xay0HEzO-1">
          <mxGeometry y="400" width="70" height="40" as="geometry" />
        </mxCell>
        <mxCell id="kwKOkOC7tSV6xay0HEzO-23" value="" style="shape=partialRectangle;html=1;whiteSpace=wrap;connectable=0;overflow=hidden;fillColor=none;top=0;left=0;bottom=0;right=0;pointerEvents=1;rounded=0;sketch=0;fontColor=#1D3557;strokeColor=#457B9D;fontFamily=Comic Sans MS;" vertex="1" parent="kwKOkOC7tSV6xay0HEzO-22">
          <mxGeometry width="70" height="40" as="geometry">
            <mxRectangle width="70" height="40" as="alternateBounds" />
          </mxGeometry>
        </mxCell>
        <mxCell id="kwKOkOC7tSV6xay0HEzO-26" value="" style="edgeStyle=orthogonalEdgeStyle;curved=0;rounded=1;sketch=0;orthogonalLoop=1;jettySize=auto;html=1;fontColor=#1D3557;strokeColor=#457B9D;fillColor=#A8DADC;fontFamily=Comic Sans MS;" edge="1" parent="1" source="kwKOkOC7tSV6xay0HEzO-24" target="kwKOkOC7tSV6xay0HEzO-22">
          <mxGeometry relative="1" as="geometry">
            <Array as="points">
              <mxPoint x="370" y="480" />
              <mxPoint x="370" y="480" />
            </Array>
          </mxGeometry>
        </mxCell>
        <mxCell id="kwKOkOC7tSV6xay0HEzO-24" value="fp" style="text;html=1;align=center;verticalAlign=middle;resizable=0;points=[];autosize=1;strokeColor=none;fillColor=none;fontColor=#1D3557;fontFamily=Comic Sans MS;" vertex="1" parent="1">
          <mxGeometry x="290" y="470" width="30" height="20" as="geometry" />
        </mxCell>
        <mxCell id="kwKOkOC7tSV6xay0HEzO-27" value="" style="endArrow=classic;html=1;rounded=1;sketch=0;fontColor=#1D3557;strokeColor=#457B9D;fillColor=#A8DADC;curved=0;fontFamily=Comic Sans MS;" edge="1" parent="1">
          <mxGeometry width="50" height="50" relative="1" as="geometry">
            <mxPoint x="530" y="170" as="sourcePoint" />
            <mxPoint x="530" y="330" as="targetPoint" />
          </mxGeometry>
        </mxCell>
        <mxCell id="kwKOkOC7tSV6xay0HEzO-28" value="high address" style="text;html=1;align=center;verticalAlign=middle;resizable=0;points=[];autosize=1;strokeColor=none;fillColor=none;fontColor=#1D3557;fontFamily=Comic Sans MS;" vertex="1" parent="1">
          <mxGeometry x="535" y="170" width="90" height="20" as="geometry" />
        </mxCell>
        <mxCell id="kwKOkOC7tSV6xay0HEzO-29" value="low address" style="text;html=1;align=center;verticalAlign=middle;resizable=0;points=[];autosize=1;strokeColor=none;fillColor=none;fontColor=#1D3557;fontFamily=Comic Sans MS;" vertex="1" parent="1">
          <mxGeometry x="540" y="310" width="80" height="20" as="geometry" />
        </mxCell>
        <mxCell id="kwKOkOC7tSV6xay0HEzO-32" value="100" style="text;html=1;align=center;verticalAlign=middle;resizable=0;points=[];autosize=1;strokeColor=none;fillColor=none;fontFamily=Comic Sans MS;fontColor=#1D3557;" vertex="1" parent="1">
          <mxGeometry x="449" y="470" width="40" height="20" as="geometry" />
        </mxCell>
        <mxCell id="kwKOkOC7tSV6xay0HEzO-33" value="200" style="text;html=1;align=center;verticalAlign=middle;resizable=0;points=[];autosize=1;strokeColor=none;fillColor=none;fontFamily=Comic Sans MS;fontColor=#1D3557;" vertex="1" parent="1">
          <mxGeometry x="450" y="350" width="40" height="20" as="geometry" />
        </mxCell>
        <mxCell id="kwKOkOC7tSV6xay0HEzO-34" value="300" style="text;html=1;align=center;verticalAlign=middle;resizable=0;points=[];autosize=1;strokeColor=none;fillColor=none;fontFamily=Comic Sans MS;fontColor=#1D3557;" vertex="1" parent="1">
          <mxGeometry x="450" y="230" width="40" height="20" as="geometry" />
        </mxCell>
      </root>
    </mxGraphModel>
  </diagram>
</mxfile>
